<?xml version="1.0" encoding="UTF-8"?>
<svg id="Layer_2" data-name="Layer 2" xmlns="http://www.w3.org/2000/svg" width="207.516577557" height="199.1402327876" viewBox="0 0 207.516577557 199.1402327876">
  <g id="Layer_1-2" data-name="Layer 1">
    <path d="M170.7811773371,199.1402327876c-11.015095173,0-19.9759525077-8.9646335072-19.9759525077-19.9797286802s8.9608573347-19.9797286802,19.9759525077-19.9797286802,19.9797286802,8.9646335072,19.9797286802,19.9797286802-8.9646335072,19.9797286802-19.9797286802,19.9797286802ZM170.7794827811,173.0485164404c-3.3676837087,0-6.111987667,2.7443039583-6.111987667,6.111987667s2.7443039583,6.111987667,6.111987667,6.111987667c3.3748489931,0,6.1191529515-2.7443039583,6.1191529515-6.111987667s-2.7443039583-6.111987667-6.1191529515-6.111987667ZM78.6236875544,199.1402327876c-11.015095173,0-19.9759525077-8.9646335072-19.9759525077-19.9797286802s8.9608573347-19.9797286802,19.9759525077-19.9797286802,19.9797286802,8.9646335072,19.9797286802,19.9797286802-8.9646335072,19.9797286802-19.9797286802,19.9797286802ZM78.6219929984,173.0485164404c-3.3676837087,0-6.111987667,2.7443039583-6.111987667,6.111987667s2.7443039583,6.111987667,6.111987667,6.111987667c3.3748489932,0,6.1191529515-2.7443039583,6.1191529515-6.111987667s-2.7443039583-6.111987667-6.1191529515-6.111987667ZM83.8083723924,148.8756006836c-6.2495654821,0-12.5482212066-2.2128370831-17.5856353173-6.2646701721-5.184684838-4.1726706089-8.7456155024-10.0597235313-10.0370664963-16.5773972606l-13.9642858929-69.7723392221c-.0755234499-.3171984897-.1434945549-.6419493244-.1925847973-.9667001592l-6.4232694169-32.0936900497H11.60040191C5.192237183,23.2008038199,0,18.0085666369,0,11.60040191S5.192237183,0,11.60040191,0h33.5135309085c5.5283165352,0,10.2900700536,3.9007861891,11.3738315602,9.3233698944l6.5176737294,32.5657116118h132.9099433674c3.458974007,0,6.7329155617,1.5406783787,8.9382002998,4.2066561614,2.2052847381,2.6622016102,3.1040137923,6.1702658597,2.4582882954,9.5650449342l-13.4016361909,70.2934510266c-1.3141080289,6.6045256968-4.8750386933,12.4878024467-10.0483950138,16.6529207106s-11.6419398074,6.4157170719-18.3295412991,6.2608939996l-81.2103657147.0037761725c-.1699277624.0037761725-.3436316972.0037761725-.5135594596.0037761725ZM67.6501302789,65.0898853261l11.2907557652,56.4160171012c.2378988673,1.2045990265.8874005367,2.273255843,1.8276674884,3.0284903424s2.1712991856,1.1215232315,3.3305841421,1.140404094l81.6559540693-.0037761725c1.5029166537.0641949324,2.6168875402-.3776172497,3.5533783194-1.1366279215.9440431242-.7590106718,1.5935447936-1.8276674884,1.8276674884-3.0133856524l10.7583154432-56.4311217911h-114.2443227161Z" style="fill: #231f20;"/>
  </g>
</svg>