<?xml version="1.0" encoding="UTF-8"?>
<svg id="Layer_2" data-name="Layer 2" xmlns="http://www.w3.org/2000/svg" width="13.1058554891" height="13.1058554891" viewBox="0 0 13.1058554891 13.1058554891">
  <g id="Design_here" data-name="Design here">
    <path d="M12.9968878554.9968878554l-.8879202216-.8879202216c-.1452901783-.1452901783-.3808521001-.1452901783-.5261422784,0l-4.7668264716,4.7668264716c-.1452901783.1452901783-.3808521001.1452901783-.5261422784,0L1.5230301337.1089676337C1.3777399554-.0363225446,1.1421780336-.0363225446.9968878554.1089676337L.1089676337.9968878554C-.0363225446,1.1421780336-.0363225446,1.3777399554.1089676337,1.5230301337l4.7668264716,4.7668264716c.1452901783.1452901783.1452901783.3808521001,0,.5261422784L.1089676337,11.5828253554c-.1452901783.1452901783-.1452901783.3808521001,0,.5261422784l.8879202216.8879202216c.1452901783.1452901783.3808521001.1452901783.5261422784,0l4.7668264716-4.7668264716c.1452901783-.1452901783.3808521001-.1452901783.5261422784,0l4.7668264716,4.7668264716c.1452901783.1452901783.3808521001.1452901783.5261422784,0l.8879202216-.8879202216c.1452901783-.1452901783.1452901783-.3808521001,0-.5261422784l-4.7668264716-4.7668264716c-.1452901783-.1452901783-.1452901783-.3808521001,0-.5261422784L12.9968878554,1.5230301337c.1452901783-.1452901783.1452901783-.3808521001,0-.5261422784Z"/>
  </g>
</svg>