<?xml version="1.0" encoding="UTF-8"?>
<svg id="Layer_2" data-name="Layer 2" xmlns="http://www.w3.org/2000/svg" width="307.7823097204" height="310.6669246569" viewBox="0 0 307.7823097204 310.6669246569">
  <g id="Layer_1-2" data-name="Layer 1">
    <g>
      <path d="M270.8425473198,55.7009259559c5.3003436499,1.9271269225,9.6087144276,5.2656463957,13.7824728682,8.9703328794,7.3315794526,6.493961147,12.8114290418,14.2934200346,16.2372879115,23.3175932842,2.9765576718,7.8407463948,5.0179727051,15.9788358763,6.1738859667,24.371212125,1.4083855694,10.188474106.8974384031,20.1454049501-2.1718506904,29.9138716754-2.0760837582,6.6004664828-5.0269194728,12.9484378344-9.350832977,18.3762386895-8.9308598315,11.1978041641-20.0036260696,19.430428115-34.5088471362,22.06294605-4.4842477984.8131059878-6.8433643797-.2309270304-7.62353622-4.7164072917-1.0470457053-6.0063394822-2.7180828132-11.9013921291-4.1061555682-17.8449330618-1.026093836-4.3652010114-.965657507-4.6218728224,3.4204953737-5.4618875836,17.5254398779-3.3534859093,25.3374516283-16.4407241722,27.4781940422-28.1955559212,1.6836127942-9.231192782-.1364153845-17.9269032565-3.9906692296-26.2821800894-6.2014109715-13.4707624593-16.872713831-20.8119163227-31.6669018014-22.3190358647-3.5359588889-.3553943718-6.977406132.4774424342-10.408651321,1.2678049168-3.3834073697.7783802044-4.1157185673.4002537391-4.7331596578-2.8221916933-1.3988453937-7.3339759082-3.1434879248-14.5841956917-5.3954943506-21.7021881823-.7077760565-2.2514073119-.0999207886-3.4384402618,2.2693750234-3.9511847699,4.0893803787-.8890736317,7.9430408156-2.7509884315,12.2286794997-2.8287648288,1.8942041867-.03470296,3.7262146436.0065788413,5.1166610308,1.5478022294-1.1200120738.5438584905-2.0575511679,1.3360069032-1.9002067375,2.6606477596.4774424342,4.1145203395,1.4538725799,7.1389329482,6.2361025199,7.7282613316,6.4305349544.7957373903,12.9819425667,1.0374541769,18.8752149893,4.3658058312,2.2520064258,1.2719873025,4.3939128324-.3871017623,4.6727233288-3.0190319951.1998415772-1.8655037774-.2028086175-3.6562210213-.6634986856-5.4325766488l.0287118209-.0065788413Z"/>
      <path d="M240.571478225,152.0316414182c-3.9266496288-11.8912471336-17.322608437-22.9239240922-29.8707925323-23.6418793794-11.7452573382-.6808672831-22.7324586981,2.9885057149-33.6006018594,6.7703751879-4.1115304758,1.4293374388-5.7568570382,5.35061216-5.3183056556,9.7271792181.2692360856,2.710904858.7000161049,5.3727508454,1.3491702917,8.0124581474,3.3809995024,13.8405127415,6.7111484984,27.6833991153,10.0628313601,41.5310784004l.0676028725-.0167523661c1.6184063773,6.6854265412,3.2655473989,13.3642799469,4.8474363569,20.0682390784,2.0019305736,8.4803261707,3.9290460845,16.9887707543,5.9524991121,25.4744832443.6162542743,2.5463596489,6.0835281773,7.0982331432,8.4659702602,7.2286688003.2782170884.0131690943.6312035929-.0418809153.8340350338-.2123944401,1.6626837482-1.4119916646,3.8105927056-1.3258333784,5.7430945357-1.8343840892,4.0331435529-1.0769443424,6.313884623-4.435816571,5.4505215369-8.5072577674-.88906222-4.1767483044-1.9289185584-8.3062293741-2.8856064743-12.466202489-1.7691776723-7.6887882836-4.0815976037-15.2662669086-5.0197529293-23.1357251243-.2177807594-1.825414498-.5067476632-3.2697240787,2.1778304178-3.6568087235,3.0704759096-.4301751995,6.093707408-1.3946458904,9.0780250313-2.3082432515,5.6461636109-1.7302866207,11.2103684387-3.9254628127,14.9539516799-8.6376934246,8.09919843-10.1782948753,12.0491735604-21.3108812109,7.7120909619-34.3951410218ZM218.3021060506,170.8494099423c-2.7198858608,3.687323592-11.8834529469,6.4000429092-16.3384183397,4.8941101834-1.2097536318-.4140162415-2.0844827647-1.1714788116-2.4602013627-2.3022635241-1.5274780032-4.5871812741-2.9538255783-9.2593111949-3.3522990932-14.0594917288-.5061542551-6.1265959087,1.4102114404-8.2565542722,7.8060548464-9.8749606494,6.0326548475-1.5208820443,11.5154943005.361978919,14.6631589052,5.0418916147,3.416912102,5.0789796187,3.2930495803,11.418586199-.3182949561,16.3007141042Z"/>
      <path d="M138.2948481977,144.8556147602c-5.2614640101.0825636027-10.2136026551,1.4424951214-15.2219781259,2.6546566205-3.0375759971.735312473-6.1152412737,1.3491702917-9.1085398999,2.2250862407-6.4963576027,1.9157608758-11.0584103276,5.6449767947-11.294141681,13.1626353221-.185474255,5.9614687033,1.3402007006,11.5077343489,2.6785983536,17.1203932275,3.9194716736,16.4861997709,8.1081794328,32.9077637097,12.1233838035,49.3712313871,2.1730260948,8.9338268718,4.1653708459,17.9209235291,6.3401999883,26.8643362235.7365107008,3.0423574967,4.8905155,6.7512263661,7.2573920329,6.4813854608,2.6067959778-.2877800876,5.2512961911-.5438584905,7.7276565118-1.5376344104,3.3361287234-1.3521487437,5.4445532212-4.7905832997,4.9096643217-8.3056131427-.3906907399-2.5804806125-.8531724438-5.1645444969-1.4293374388-7.7103107377-2.1167892691-9.2503416037-4.2623017708-18.4934938406-6.5041403777-27.7133205758-.4409478382-1.8212378182-.1675236611-2.6247579835,1.8020889964-2.9801409436,2.7791125502-.5013841672,5.509759638-1.2833590551,8.2523661806-1.9773954325,12.9520325179-3.2864536215,21.528079974-11.1170207856,25.2716518034-23.9864897008,7.3555211856-25.273454851-12.9394568316-43.9542145825-32.8048644691-43.6688195388ZM151.4933847076,181.3472094133c-.5929173611,5.4535114006-4.0606799694,8.8273329477-9.2557279231,10.4882136484-.7454802919.2411290844-1.516089133.3775444689-2.2759367471.5612270881-8.353485197,2.0623440792-10.7646391009.6371833203-12.8006564031-7.7342524707-.7371155206-3.001686221-1.8242276819-5.9387366097-1.7063562994-9.1073530837.1675236611-4.2700731341,1.7572068058-6.6136241655,5.8041242728-8.0579109228,5.0113653345-1.788326494,9.826495187-2.3680861725,14.7265850978.807103437,4.9736839225,3.2278431635,6.0793400858,7.8365468916,5.5079680021,13.0429723037Z"/>
      <path d="M174.7888393063,45.0601322591c-21.856542749,5.2195830948-35.341056299,26.1918394175-29.4633494263,48.3726682618,4.872564906,24.8372885124,31.2516759204,34.4334386653,48.7101063338,30.2985826879,20.0197622042-4.7349627054,35.055079259-24.3054008883,29.3406965442-48.3331780963-5.0131569704-21.0883303636-28.1680309164-35.2303799893-48.5874534517-30.3380728534ZM203.4373025206,80.3856401257c1.9169591036,9.894714291-4.795969619,20.5450766928-14.7846249712,22.8317860786-10.5486499773,2.4117473119-21.1523385526-4.1480250717-23.3887908401-14.4794991094-2.7288554519-10.2225722462,3.5018607486-20.8472126908,16.1642987197-23.1452881235,8.3750418861-1.5125058613,19.8827534116,3.7381855101,22.0091170916,14.7930011542Z"/>
      <path d="M105.3338261142,91.9669684862c2.9598053057-4.1689655294,5.0807826663-7.9334778165,6.4293481382-11.8643269485,2.2801248387-6.6393461227,4.9988124716-12.9813377469,8.7968294909-18.897941377,1.1828448584-1.8409743422,2.6367174383-2.9807400575,4.7708524816-3.4970735432,2.5571436993-.6186450241,5.1615432215-1.2091659295,7.5900543112-2.1903832807,2.8449237869-1.1535225119,5.0640188885-.478640662,7.2352533474,1.3880613433,2.1837987335,1.8744790744,1.3216566986,4.0720403103.6880452384,6.1637010303-2.5954299311,8.6137459857-6.2839517509,16.8762913969-8.7004919741,25.558239369-.3374437779,1.2121614991-.6318084126,2.4344908171-1.0697663872,3.6107511284-.8094998927,2.1646499118-.1866724829,3.8111747019,1.3342095615,5.512144682,7.9675873684,8.9948680206,16.4383391283,17.50510424,24.6960916282,26.2277463113,2.9771510799,3.1356937382,3.1458729688,5.1340182166.7706088411,8.1021882937-1.2887339627,1.6142182858-14.3723889539,5.6186500177-16.2103791382,4.7511216634-3.136891966-1.4813975847-5.4702637667-4.0164025985-7.6349250902-6.6118325296-3.6113445364-4.3251231437-7.919715314-7.9568147297-11.7027716031-12.109027893-1.6758414309-1.835582317-2.6325293468-1.3312196978-4.2682814982.5283043523-3.7704920145,4.2646982265-4.4525575254,8.6801563362-2.4602127744,13.8411061496.6485607787,1.6704551115.7891528431,3.5951969901.8842921321,5.4194132603.1830777994,3.277495442-1.5591796878,5.4959971356-4.7134288397,6.3401999883-1.5095045859.4056514701-3.0190205834.8118963483-4.5375175838,1.1792501749-5.2297509137,1.2660018692-8.9864804258-.843598033-10.3404436288-6.0177169407-3.3079988989-12.6570630634-6.5849009328-25.3111362631-9.7391500847-38.0052987421-2.1766150725-8.7411860732-4.4208444291-17.4656197804-5.9153996964-26.3719330591-.63778814-3.8129663378.9303554331-6.6662663077,4.7193971554-7.745002286,2.1616714598-.6138578187,4.3598261038-1.0751527065,6.5418332014-1.6034513529,3.9511847699-.956088802,6.5549908841.594109883,7.5529548955,4.5925618876,1.5878915088,6.3898522669,3.1291206027,12.8012498112,4.6876954708,19.198291445.1316224732.5432650825.2608599025,1.0775377505.6024803602,2.488936007l-.0071779552.0119708665Z"/>
      <path d="M90.744843217,138.4256618022c-7.5697072616-11.3019130443-13.9984505801-23.3146034204-21.6471381726-34.5674575942-5.0897522574-7.4901335226-9.8372735315-15.2052371715-14.724793462-22.8257949395-1.85952405-2.8915976134-4.4573447309-4.5847848184-7.9354520394-4.7020513812-3.7679814419-.1376136124-7.3685590455.7945391624-10.8013761953,2.251401606-3.0741305045,1.2995180131-4.8514447142,3.6675927739-5.7450088473,6.9127817115-1.3774684387,4.9874350132-1.6197814864,10.1244545052-2.1227747024,15.193266305-1.4219226909,14.3466669966-2.4508209506,28.7196607703-3.6331836649,43.0896646802-.3696903709,4.3999039715-1.0577983736,8.7459675728-1.1233100532,13.1841691878-.0655145326,4.4375967952,4.7323836626,8.2834858689,8.7296944979,6.7207229093,2.3416310139-.92019332,4.890215943-1.4060119372,7.3899188829-1.7990991327,2.7255061198-.4277787439,4.0065257777-2.0300375748,4.750990429-4.4615271166.806395912-2.6385090742.6448519783-5.3655728902.993661803-8.0441712438.1985748792-1.4921588117.6264220933-2.3728562603,2.215991121-2.8688541082,6.5221993827-2.0629374873,13.0508634898-4.057678694,19.6979923874-5.6868462983,1.5956685779-.3859092403,2.3136352767.2680378578,3.0363834752,1.4460898049,1.9175525116,3.1297140107,3.712457847,6.3396065803,6.1732697353,9.1061434442.965657507,1.0889152089,1.9163599897,1.9893548874,3.3911730272.6832637388,2.6528706905-.6419762316,5.2740282846-1.4586540795,7.9586063656-1.8858394153,4.3514499207-.689848286,5.3206906995-4.3370940102,5.1896616343-7.5260347104-.0693945084-1.5478136411-.931547955-2.9239041178-1.7943062215-4.2198274475ZM56.3628598779,123.3466721963c-1.5825051894.4840269813-3.1835600867.9321527748-4.7822242342,1.3898529791-5.5031180324,1.3114774679-5.4215643645,1.3120822877-5.2858108582-4.2228058995.0748435921-3.3899805052.3939202492-6.7386735032,1.002933804-10.0658212238.3692709911-2.0479881688,1.5312895088-2.2083338746,2.7554161686-.8083130765,2.9867197849,3.4258816931,5.4690712447,7.2071463463,7.4470543795,11.3013196362.6306101848,1.301309649.1035097662,2.0246512555-1.1373692597,2.4057675845Z"/>
      <path d="M106.2348706125,211.5446730848c-2.8311612844-12.57988578-7.1293642431-22.7258855626-12.4404805318-32.4345207788-2.7324387237-4.9820486938-6.4903778753-9.2413491892-11.5771345631-11.9678081855-21.7201330704-11.622011048-42.0665093553,6.184635782-43.6171873314,23.5311859521-1.2666009831,14.1474416509.7164090027,27.9729822505,4.1178696716,41.6471581471.9772631994,3.9535812256,3.5780223913,5.5749774666,7.6062646218,4.5596562693,3.1171497362-.7849647516,6.1768644187-1.8080687239,9.2754701529-2.669012531,1.0314687436-.280020136,1.4999415867-.9082338651,1.470624946-1.870285277-.0723957838-2.0222662115,1.2079677017-2.533806786,2.8927844295-2.9316868928,7.5140695498-1.7482486263,15.0215545524-3.5245928422,22.4985303923-5.4253929877,2.3961931736-.6102745469,3.9846780905-.4397610221,5.0317123841,2.164045092.9680539627,2.4003812652,2.8257749651,3.4755453834,5.6479666584,2.4386789087,2.9256957537-1.071558023,5.9566872037-1.8756715964,8.9691346516-2.7162797656,2.0581559877-.5785728623,2.7593589087-1.7584050336,2.4793615961-3.8811854418-.5576209929-4.155796435-1.82482109-8.1291198904-2.3549170781-10.4445525089ZM81.5322058487,205.4701144986c-3.1195461918.7754017524-6.2456712249,1.5220916838-9.3699989163,2.2783446145-.0137625024-.0574464653-.0275250048-.1148701071-.0508562122-.1693267087-3.0280072921.732927429-6.0607960838,1.4467060363-9.0846095785,2.1987594638-1.8140484513.4493240213-2.7360334071.0466738266-2.5942374091-2.0575511679.2788104965-4.1462334359.3512062803-8.302623279.610867955-12.4440866269.1130784712-1.8451567278.6282137292-3.6251070388,1.5807135535-5.2393139129,2.3878169906-4.0104114594,7.9137298808-4.9742887422,10.941138059-1.5071195419,3.9547680417,4.5243484895,6.4736198033,10.0125742618,9.222217485,15.3141275512.6736836221,1.3108612365-.4499231352,1.4209612557-1.2552349363,1.6261663289Z"/>
      <path d="M24.3658805468,64.3583444927c.3588007623.0951335832.7152706862.1806870496,1.0740714485.2752215189,1.9746937141,1.1373692597,3.9374194146,2.2675605641,5.9121159816,3.4049298238-6.7329277155.5193233494-13.4421590494.5480465821-20.1065181779-.6252238655-3.6769204069-.6443726872-6.748420516-2.44525775-9.3812465668-4.9982076519-2.0482249614-1.9875575456-2.3888376239-4.2778559091-1.1199000966-6.8966227535,2.7654691574-5.7275403975,7.1158378201-9.9102627234,12.6352289275-12.9622003368,15.9558584314-8.8297294034,32.8563768537-15.3535492466,50.3913968483-20.2644060903,21.9062007335-6.1505404947,44.020624933-11.523705014,66.2253840986-16.5249053825,11.4658420219-2.5735936555,23.0160506942-4.1276209637,34.7415658025-4.9163629858,8.6514331036-.5798737953,17.2735495665-1.3242214767,25.9213993983-.4493240213,4.903696006.4990419171,9.1342846805,2.7157491219,12.9819425667,5.5802981687,2.8551144292,2.1256447433,3.57605958,5.3130933645,2.0324454422,8.5639653256-3.1500610603,6.6180490496-9.080421487,10.2442344935-15.2333555844,13.5810250951-.2393260368-2.0418258543.822668987-4.0858598712.052653554-6.1307383535,1.7715741279-.2066543582,2.6450936213-1.5589343364,3.4821185188-2.8518620965,1.6512948781-2.5097537889,1.1211988899-4.0270468556-1.6327851111-5.1473071338-2.6414875262-1.0768216667-5.4164005732-1.5257862196-8.2589393161-1.6656108476-7.0198690436-.3299634127-13.9805113978.6784736804-20.9573012984,1.1153532499-14.5267549323.9015808478-28.7334232727,3.966858731-42.8964190618,7.2133628663-18.5503354861,4.247997213-37.0617799206,8.6580804151-55.202275845,14.4727890336-10.302750805,3.3014257634-20.3116162664,7.4404755382-30.4791499147,11.1331911553-6.7534459405,2.4524414111-12.7442398432,6.1637010303-18.3362036156,10.5564327523-1.2053373064.9477069131-3.1243291179,2.3112388211-1.3533555303,3.951778178,2.4697871852,2.2998727743,5.345882013,4.2186235138,9.1060863858,3.6514338158l.2319027302.0753856475.1526256952-.1687218889.0165127205.026326777Z"/>
      <path d="M152.4500612119,274.1676879439c-3.2541585288-6.4209719552-12.9155265103-10.6844719538-19.6446256026-8.2176746323-6.9367006212,2.5367966497-12.8742504148,6.1750727829-16.1092601218,13.6616230337-3.3331388597,7.7127071933-9.0074322951,13.6993044457-17.9933193129,15.1681263441-12.5092816321,2.0485815768-27.5344308679-7.5601328507-31.7979251607-20.5911228762-1.6812277502-5.1358326759-2.5032919175-10.5498596169-3.7220322579-15.8376504039-4.0469117612,1.9887614793-8.4366479137,1.9714157051-12.8000629951,2.1490957735.247696514,3.756136104-.2985527263,7.5529663072.7048033103,11.2779941346,3.4970678374,12.934081924,10.0311182638,23.9517981524,21.2474721358,31.6555129312,9.6655617789,6.6357628509,20.5313141904,9.0229978451,32.0109187147,5.8304624615,6.8631180212-1.9139692399,11.6160199089-7.3345921397,16.4479021274-12.2598105997,3.6412659969-3.7082526379,3.5676719853-3.8016002911,6.3605470379.3787312851,3.8494723454,5.7712129486,11.5406342614,8.6646021979,17.5637375214,6.6010713026,8.6574242427-2.9538255783,13.5048605996-11.809870347,11.2636154008-20.6055016101-.8166778479-3.2051110699-2.0467785292-6.2690138441-3.5317707974-9.2108571441ZM146.0183280297,288.0411120096c-1.0990830278,2.1437094541-1.5639611874,4.6792964643-4.3329059187,5.1782841759-2.2047391912.6042948195-3.9918674574-.0538403701-5.6820647987-1.108052619-1.6208028329-1.0213009247-2.9962884899-2.4147371756-5.0873558018-2.6456870294-.8477975362-.097524333-1.4760112653-.8842921321-1.2785661438-1.9618298826.6066684518-3.3373269512,4.9838403297-7.829380348,8.4318607083-8.5933932303,2.6546566205-.5917191332,4.9054648185.2967496787,6.5101086934,2.3010538846,1.549605277,1.946880564,2.8682607001,4.0307699207,1.4389232614,6.8296247007Z"/>
      <path d="M232.4465578378,280.7400246021c-12.9622003368,3.3696448673-21.284588669.7706088411-28.1303495044-5.8609545066-4.4914371653-4.3442719655-5.866934234-10.3213062187-6.1619036885-16.4586747661-.0233255016-.5600174486.1406148878-1.185241314.3948902431-1.6908021611,1.2773565043-2.5403799215,2.6827750334-5.6066791512,5.6216284697-5.8232730945,2.6588561237-.1992253458,2.8616875647,3.2445955296,4.0307699207,5.1322265808,1.0392401069,1.6872188893,1.0721514311,3.7992266588,2.3848157152,5.4804429973,6.4263582745,8.1763871251,13.5850277467,7.2717593551,20.5259392827,3.7035053734,9.9557212046-5.115497038,14.3269247668-13.8363360617,15.0442866459-24.6201125727.134612337-2.0922655397-.7077988799-2.7970517325-2.8000644196-2.1490957735-4.4657152081,1.3934362509-8.9386197831,2.7994481881-13.4599784089,4.00502514-2.8293696486.7556595226-5.6060857432.8017171177-7.65466732-1.9432744689-1.9133758318-2.565531294-1.2929220543-5.0879720332,1.7697710804-6.1828555579,2.3770557636-.8579539434,4.750505432-1.8158514988,7.3657004163-1.7320896683,6.7476430943.2141974877,12.6947558871-2.7097066301,18.8291345708-4.8611988593.3661555988-.1286326095.6940363775-.3697388706,1.0643686561-.4792226584,7.4099777872-2.1371363187,8.3576732886-.1555642063,8.847098001,5.1878699984,1.356941655,14.8959118065-2.2950969806,28.0160499819-12.9855486618,38.8818080992-5.023336201,5.1029213518-11.1942094807,8.3229589168-14.6685452245,9.3963199875l-.0173457742.0143559105Z"/>
      <path d="M185.2333918153,227.9895853485c-2.2256910605-4.277262501-5.8693421013-7.4333032888-9.9288124312-9.9940188481-8.4551976215-5.3338712055-19.1605986213-3.3582788206-25.7030252308,4.2527273599-5.2728300568,6.1319822281-5.7903617704,12.9915055658-4.2479458603,20.3715618926.9668557348,4.8342672625,3.163218743,8.905708459,7.2089379822,11.8738899477,8.6831461999,6.358755402,19.3155580078,5.4708571748,27.9801602057-2.330381937,6.7249110008-6.0596092677,8.824343084-16.2193487293,4.6906853345-24.1737784151ZM168.6012136606,247.855586394c-5.4182150325,1.2001906326-11.2732012233-2.4303027256-12.4895394023-7.7492017892-1.3019144688-5.6312142923,2.1586701844-11.8499482147,7.1927790241-12.9568140175,5.2255628222-1.1541102141,10.6090748946,2.8832100187,12.0336308338,8.7675128502,1.3874565235,5.731728489-2.1245720441,11.276191087-6.7368704557,11.9385029565Z"/>
      <path d="M173.4971154799,259.966999331c-8.8943538239,2.142522638-16.2809832861,10.9776383608-12.9879337058,22.6887975586,3.1303188305,11.1248035606,11.0326769587,15.2698501803,22.5140845306,13.6412645724,10.7275396852-2.5559454714,16.3994480767-11.622011048,13.9057191584-22.3459674614-2.1550755009-9.2808336489-12.6732106097-16.5783149612-23.4318699832-13.9840946696ZM179.7565435014,286.9617712116c-3.2140806611.6365899122-8.8470865893-3.4210887818-9.4747069104-6.8128723346-.8639450825-4.7475155683,2.0085037091-8.3504839217,7.5745001729-9.4860615454,3.5293743418-.7227481984,7.892795129,2.3800456273,8.5987909613,6.0961038636.8507873999,4.4381902033-2.3842451305,9.3604187996-6.6985842238,10.2028300164Z"/>
      <path d="M230.9107036515,194.9848907139c-9.5189728696,2.0414150333-15.0412967822,10.7580545537-13.1243376786,20.3596024377,1.6722695708,8.3786023345,10.9453204447,13.8973429753,19.9874671115,11.5675544464,11.0063501817-2.8760434751,14.7558903268-9.2054708248,13.0220204344-19.4364192541-1.531654683-9.0182049338-10.6928481369-14.4531609207-19.8851498673-12.4907376301ZM236.5449078076,218.0930908333c-3.7884311967,1.0380532908-8.1297132985-1.3838732517-9.0020459758-5.0293159285-.9716372344-4.0558984698,1.1170450335-7.3675034638,5.2937705145-8.3989607958,4.4172611573-1.0895200287,7.8545088972.5821333107,8.7812753526,4.2850224526,1.042252794,4.1797381681-1.1110424827,8.0633200655-5.0729998913,9.1432542716Z"/>
      <path d="M270.8419539117,55.700326842c.4630865237,1.7859300384.8633402628,3.5670728714.6634986856,5.4325766488-.2788104965,2.631924527-2.420716903,4.2910192976-4.6727233288,3.0190262893-5.9028354219-3.3259551986-12.4440638035-3.5700627351-18.8746215813-4.3658058312-4.7828233481-.5887235637-5.7592534938-3.6137409921-6.2360796965-7.7282556257-.1579606619-1.3246408564.7699926097-2.1143985193,1.899590506-2.6606477596,1.6638933877-.7359115869,3.4378411479-.6808672831,5.1794938154-.5468483542,7.8784506302.5965063387,15.2399515433,2.8832157245,22.0504045988,6.8475581771l-.0095629992.0023964556Z"/>
      <path d="M5.6014131903,86.1742102601c-1.2193380279-5.2471080996,1.9557873908-10.1651371927,7.3282358264-11.3443987793,4.6852990151-1.0332603795,10.3252461059,2.5080848287,11.4610006109,7.2005617991,1.2304687085,5.0831677102-2.1894246984,11.3019130443-7.0939994049,11.9337214569-5.862336748.7526582472-10.2401077398-1.6100301942-11.7048685018-7.787488021l.0096314693-.0023964556Z"/>
      <path d="M63.1840969838,258.3503960013c-4.056486172,1.991751343-8.4462223246,1.9743827455-12.8000629951,2.1496891816-.9369399802-1.3479720639-2.0087376488-2.6235483439-2.7937708706-4.0588655101-2.628871899-4.7648841658,1.2963398565-13.2260615148,6.3440913758-13.8118009206,7.6720188-.8878754039,13.4988751663,6.7476430943,10.4601009414,13.7423950005-.2991461344.6982130573-.8011237096,1.3144673316-1.2031804963,1.9672162019l-.0071779552.0113660468Z"/>
      <path d="M196.0877838858,37.9965849584c-1.1337973996-4.3496468731,1.8152352674-8.9401774793,6.5137033769-10.1279864244,4.2880123163-1.0782566871,10.1244545052,2.2237111317,11.1529219735,6.3054399698,1.1056789867,4.3568305342-1.9959280228,9.5794034927-6.3437832601,10.7030159558-4.5309444483,1.1672850143-10.1142752746-2.2262787627-11.3246451378-6.8900382063l.0018030476.009568705Z"/>
      <path d="M226.1422590373,259.5709222717c-3.4893078858.5917191332-6.9917620425,1.5101094056-10.0945558682-1.3024850534-2.9980801258-2.7168959971-2.4901228231-6.46406251,1.2408847317-7.7809262973,2.9544189863-1.0380532908,5.7173725785-2.4039645369,8.3487036975-4.1007464254,2.571488198-1.6525045176,6.6866133573-.6288299606,9.1037469886,2.1275504961,1.6866026579,1.9235322391,1.3539517913,4.2048667172-1.0835174779,6.9151667555-2.0138900285,2.2340672436-4.5112022185,3.6460589082-7.52724435,4.133680573l.0119822782.0077599516Z"/>
      <path d="M223.8998156107,112.2511738647c4.917435685-1.2103584515,9.6769335315,1.3832798437,10.7616378255,5.8657474179.9716600578,4.0145995509-2.314816387,9.3131629767-6.4831885083,10.4630965109-3.5485117518.9806182373-9.0816083031-2.6678257149-10.0472658101-6.6136241655-1.176865131-4.8635953149,1.0057353747-8.5419493158,5.7592534938-9.7128233077l.0095629992-.0023964556Z"/>
      <path d="M68.799751432,85.8182224803c-3.7076763474.867539766-7.228680212-1.3192602429-8.1835650803-5.0957319848-.8902718595-3.5096435236,2.2514073119-8.4396434832,5.8693363955-9.2150452356,3.2894606027-.7047976045,8.4821178066,2.4602241861,9.258112967,5.6240363371.8310394642,3.4330482366-2.5439746049,7.6522708643-6.9438842822,8.6867408834Z"/>
      <path d="M26.9207476132,176.9431173503c-.8356469355-3.1997247506,1.602070538-7.2125326656,4.9315576558-8.1297132985,2.9399946057-.8023333491,6.3810024986,1.2217130866,7.2323890124,4.2766462696.8259555548,2.9502194831-1.8827354347,7.7348458788-4.8734664298,8.5796535512-2.8273326613.8058937975-6.4617744654-1.555003008-7.302445399-4.7337758893l.0119651607.0071893669Z"/>
      <path d="M89.318495642,155.5394818943c3.2613478957-.8196791233,7.0575618674,1.1989924048,7.8880022177,4.208449989.8023219374,2.8951694735-1.7715627162,7.3549277776-4.6990501058,8.1237335711-2.266967156.5995019082-6.9319191216-2.5721044295-7.6127921105-5.173514088-.9165986365-3.4934731539.7801889578-6.2360911082,4.4238399987-7.1586694721Z"/>
      <path d="M114.3233078154,238.5316621904c.6413828235,2.6510733488-.9907860562,5.4086406216-3.5910088986,6.0583996281-2.1395213626.5378787631-6.4622480507-2.7773095027-7.1425219258-5.459491128-.6264220933-2.5033147409,1.1182318496-5.9746377976,3.2613478957-6.4532898713,3.0878330955-.6970262412,6.5298623349,2.0037107978,7.4721829286,5.8543813711Z"/>
      <path d="M14.640550023,99.5947042094c2.8927273711-.6192327263,6.5698289386,1.2869537385,7.0965727417,3.6729790932.5267466561,2.3866187628-2.4119327519,7.1461051975-4.6794334046,7.5738953531-2.6277392884.49479962-6.1142213535-2.0533744881-6.651436812-4.8611988593-.5117873523-2.703122083,1.5434985945-5.8148969115,4.2246660055-6.3832791314l.0096314693-.0023964556Z"/>
      <path d="M59.9472842293,157.9147346103c-2.6373108464.708985696-6.4508877098-1.4670302625-7.2005560933-4.102549473-.6940306716-2.4464616837.9680482568-4.5351325399,4.3376817125-5.4110370772,3.7812646532-.9860045566,6.8679052267.2052164849,7.485352023,2.8826166106.5253087827,2.295678977-2.0025182759,5.9363401541-4.6224776422,6.6309699396Z"/>
      <path d="M169.413703417,207.5791324043c-.645570915-2.5391931053.6988178771-4.5105859871,3.5712666687-5.256066279,3.3241578569-.8549869031,6.0153204851.3410270496,6.5950687518,2.9466362113.5432650825,2.41234072-1.5974659196,6.4341182261-3.6975028226,6.9624339901-2.2741451113.5707672639-5.7963414978-1.9588400189-6.4664361422-4.6434180998l-.0023964556-.0095858226Z"/>
      <path d="M79.1874622954,91.1885768701c.5534271956,2.8341511482-1.1852356082,6.707553815-3.2080952278,7.1371356064-2.4291044978.5169268938-6.0937017021-2.4727770489-6.6674702414-5.4331757627-.3793246931-1.9875632515,1.9965328426-4.7840215759,4.4728988692-5.2722366488,2.5846629982-.5043626192,4.889322978,1.0272920638,5.3930921891,3.570661849l.0095744109-.0023850439Z"/>
      <path d="M76.9079308648,231.5159812382c.8190743036-.1477814313,1.5783170979-.3314640505,2.3561096001-.3984735149,2.0922598338-.1836826192,3.2571540983,1.1798549947,4.0385355781,2.7677465035.8537772636,1.7213170296-.7849704574,2.390818266-1.8014841767,3.1518412845-1.5579757542,1.1744686753-3.3516828617,1.962446114-5.2387262107,2.4895294151-1.9833694541.5510478575-3.7429727155.3003557739-4.6954725399-1.740443028-.9471077992-2.0222662115.0741931255-3.5210095704,1.6040504668-4.8103483529,1.0996764359-.9225897756,2.5026928036-1.0099348779,3.7345965325-1.4694381299l.0023907498.0095858226Z"/>
      <path d="M190.4541731379,28.133948938c-2.3154326185,1.155976026-4.6021305926,2.3455195485-7.1024326464,3.0719194888-8.5407624997,4.359221284-17.7294695466,6.9672154897-26.7895553957,9.9371886143-25.4248081424,8.3451033081-51.4054570535,14.5632495283-77.5733604438,20.0490788449-2.2867093858.4732543426-4.5680324523,1.0554047708-6.9337164633.991984284-3.419890554.5857337-6.839781108,1.1714731058-10.2596716619,1.7566133977-.4463341576.0478606427-.8830939043.0927371275-1.3276307201.1495730672-9.7188087409,1.1313895322-19.2636918607,3.6131418782-29.0952167516,3.9434077008-1.9746937141-1.1373692597-3.9471136483-2.2651698143-5.9145095844-3.4139108266-.356467071-.0855591723-.7152079219-.1806870496-1.0740115371-.2752215189l-.0369139757-.1525629309c-.0152574343-1.9546519273,1.4104368214-2.8754386554,2.7669048911-3.8297301156,6.0222616476-4.2545189958,12.7645184226-7.0473883426,19.6129153592-9.6541900263,17.200212318-6.5460155871,34.4635997713-12.8748495287,52.4036607105-17.2071506276,10.717976686-2.5948308172,21.5191103829-4.8052530317,32.3154625801-7.0350066551,15.0221479604-3.1011733652,30.2231970404-4.5394290425,45.5223638614-5.1937356089.8029153455-.2549942921,1.6154051019-.4313734274,2.4243115865-.0315875677l.0293166407-.0474441159c3.7567409238-.455069809,7.4715895206-.2841340515,11.1182418368.7816211254.770015433,2.0448727764-.2925729989,4.0889124992-.052653554,6.1307326476l-.0335047322.0284208228Z"/>
      <path d="M109.7528789075,251.0152104535c-1.6082271467-2.3566973023-3.8147693854-4.1145089278-6.0428340782-5.8364193655-7.7749351582-6.0129354411-21.4060319116-4.2275988108-27.4542637208,3.5760367566-.584541178.1920588022-.8262522588.6240370493-.8364257836,1.2121729108l-.0149550244.1046908765c-.2536819473.4247888802-.4971903698.8472041281-.7508666113,1.2719930083l-.1166731547.1896623466c-.2554735832.415225881-.4941948003.8166892596-.7502674974,1.2318923172l-.0921380136.1633469813c-4.3586278759,5.0329220236-4.2299895606,14.6027453996.30154259,21.2995379875,4.1210991808,8.7854520325,15.5456651072,13.733402586,23.8034176072,11.1487452936,9.1169160829-2.8628743808,15.8184901705-12.3399663351,15.1160890216-22.3058667703.0831684225-4.3209464639-.3954722395-8.4857124901-3.1626253349-12.0557923427ZM100.2901428636,261.1498441894c.034109552.1436047515.0568416455.2794039045.0819701947.4247888802.034109552.1830892111.0592381011.3691682859.0813767866.5456615381.0382862318.2835805844.0544451899.5617976728.0688011003.8310451701.0089695911.330847819.0059797274.6551225025-.016158958.9835966893-.0125642746.3260777311-.0466624149.6473625509-.1005141967.972846874,0,0,.0011982278.0035832718.0023964556.0095629992-.0556434177.3165147319-.1208612462.6354030961-.1980385296.9465086853-.0676028725.2686540892-.1441867478.5396818107-.2333348977.8035201653-.1011190164.3374437779-.2267617623.6605316453-.3709485101.9883896005-.0640196007.1567738458-.1376136124.3159213239-.2201772151.4774652576-.4672746152.9710438264-1.0655782956,1.8630959101-1.7871282662,2.6235483439-.1453849756.1561576143-.2835919961.3003329505-.4331650632.4379579745-.5636007204.5300959881-1.176865131.9812002336-1.8469597754,1.3252399703-.132227293.082552191-.2698294937.1459783837-.4092347419.1998187538-.1280392015.061029737-.2650479941.1250493378-.4044532423.1788897079-.2794039045.1077035636-.5725703115.1992481691-.8609552188.2686540892-.1926522103.0466510032-.3870960564.0837618306-.5983036804.0945116459-.0670094644.016158958-.1388004285.0131690943-.2183741675.0227549169-.2710391332.0149493185-.558214401.0035832718-.841212989-.0287346443-.1364153845-.0173457742-.2728307691-.0346915483-.4116311975-.0616231451-.2656528138-.0472672346-.5360757156-.1130670596-.8113029403-.1974451216-.14298852-.0460575951-.2985527263-.0993045572-.4541055209-.1525515192-.1549593865-.053246962-.3033456376-.1184762023-.4630865237-.1908719861-.1124850632-.0436611395-.2363247614-.0945344693-.3535913242-.1567510224-.1382184321-.0676028725-.2770188606-.135205745-.4176223366-.211801032-.1310290652-.0795623273-.2596616747-.1489682474-.391284148-.2285533981-.2237718985-.12742297-.4409478382-.2668282183-.6503524146-.4181929213-.2333463094-.1651500289-.4666812072-.3308706424-.6952346053-.5181365333-.1405920644-.1172665628-.2806021324-.2345331256-.4211941967-.3523930964-.1142766991-.0933476531-.2213754429-.1986547611-.325484323-.2943760465-.7347076532-.6802738751-1.3892481594-1.4508827162-1.9355031056-2.277728383-.1753007303-.2602550828-.3332499805-.5354823075-.4888084809-.8005303016-.0729948977-.1334255208-.1483805452-.2770074489-.211801032-.4128294254-.0729948977-.1340189289-.1388061343-.2794039045-.1926522103-.4176223366-.1130784712-.2554621715-.2159891236-.513343622-.2997509541-.7759951605-.0610240312-.1669074297-.1118802434-.3362341383-.1537611587-.5079573027-.0694059201-.2453057643-.1124793573-.5073410712-.1435933398-.762232658-.0185497078-.0765724636-.0203413437-.166930253-.0293166407-.2458991723-.0221386855-.1758998442-.0323065044-.3452265529-.0239303213-.5187299414-.0053863193-.1501778869.0005934081-.2931664069.0065788413-.4361549269-.0041880915-.0592266895.0011982278-.121466066.008975297-.1735033885.0059797274-.1430113434.0119651607-.2854064553.0400835735-.4236020641.0209404576-.2070081207.0514553262-.4164126971.1041088801-.6210471856.0251285492-.1471651998.0604249173-.2973430868.1047022882-.4493240213.0628213729-.2877800876.1543602726-.5821333107.2674387439-.8723098539.0167523661-.0544566016.0418809153-.1208726579.0688068062-.1782962998.0783755112-.2207706231.1669245472-.4439377019.2770131547-.6623118694.080766261-.1711297563.1615382279-.3422366892.2518846056-.5157400777.0191431159-.044870779.0484597566-.0921380136.0777763973-.1399986563.1100886075-.2183969909.2321423758-.4295817915.3655621907-.6336228719.0801728529-.1304128337.1609448198-.2608484908.2530828334-.384094781.097524333-.1447915676.204018257-.2919795908.3135077507-.4289883834.0897529697-.1328092894.1914539825-.2584748586.2955628626-.3745317819.1651272055-.2016218014.3398402335-.4056400584.5283043523-.5923125413.1453849756-.1567738458.3027408178-.3057420932.4624817039-.4451473415.1645337974-.1609505256.3410384613-.3147116843.5199281692-.4588870205.0843552386-.0712089677.1711069329-.1322387047.267433038-.1962583054.087356514-.0616231451.1645337974-.1202564265.2512854917-.1818795716.1208612462-.089741558.2363361731-.15855407.3595824633-.2387098054.113683291-.0777821031.2387212171-.1483976627.3643639629-.218990399.4481372052-.2500758521.9058374095-.4618768842,1.3892595711-.6090649074.132227293-.0418809153.264454586-.0843552386.399066923-.1166731547l.1148701071-.0281184129c.1830892111-.0442773709.3583842355-.0765724636.5432650825-.1112868354.204018257-.0388910516.4104329697-.068812512.6096697272-.0867516943.1776914801-.0227320935.3577794157-.0364945959.5378673514-.0496636903.0215452774.0047929113.0406826875.0005934081.0598315092-.0041766798.2638497662-.0036060952.5181251216-.0041995032.7670255693.016158958.2064147127.0107498153.4026501947.0239189097.6036785881.0556205943.1148815188.0125756863.2321480816.0347143717.3494146444.0568530572.2111962123.0299214605.4164126971.0807719669.6222340017.1322158813.2512854917.0706155596.4947882083.1525743426.7412922004.2447123562.3033342259.1184533789.5899274973.2506920836.8830939043.4122360173.0813653749.0406712758.1501778869.074176008.2123944401.1196630184.0694059201.0340981403.1406034761.0771658717.2147908957.1298194257.1429999317.0867516943.2764140408.1758998442.4122360173.2740175852.1334141091.0885547418.2596616747.1896623466.3876894645.2997623658.1262475656.1005141967.2429207203.204018257.3709485101.3140954529.1597522978.1531677506.3188997759.3063355013.4726609346.4810485293.1358105648.1387890168.2638497662.2895603118.3847110125.452313885.1280392015.150771295.248889036.3135020448.3595710516.4780358422.3266825509.4660763874.6096697272.9632610514.8537772636,1.5095159976.0735940116.1340189289.1274457934.2722145376.1812861635.4110263778.1735148002.4224152479.3200980037.8609666305.4427508858,1.3258333784l.0765724636.3147116843Z"/>
      <path d="M279.0937266843,298.1494075568c-.0197422298.0849486467-.0041995032.1914425708-.0520601459.2429093086-.0508505064.0424743233-.1549707982.0275250048-.2333463094.0364945959.0293280524-.1274457934.0472672346-.2614647223.0771886951-.3888876923.068812512.0335047322.1489682474.074176008.2177807594.1076807402l-.0095629992.0018030476Z"/>
      <path d="M172.4351204561,85.2348795301c.0041880915.0999093769.0101792306.2094045764.0257333689.3165033202-.026326777-.2357313534-.0454755987-.4834335733-.052653554-.7239464262.0011982278.1310290652.0137625024.2692360856.0269201851.407443106ZM181.4288016605,65.5926389714c-12.6624607944,2.2974820245-18.8931655833,12.9221110574-16.1643215431,23.1446947154,2.2364522875,10.331462626,12.8401522745,16.8912464213,23.3887908401,14.4794876977,9.9886553521-2.2867093858,16.7015840747-12.9370717877,14.7852412026-22.8311812589-2.126957088-11.0548156441-13.6346914369-16.3055070155-22.0097104997-14.7930011542ZM196.2277825421,87.3403027524c-.0640196007.1974337099-.1262361539.4038484225-.1998415772.6036785881-.0616231451.166336845-.1232462902.3326622783-.204018257.5037692112-.0047929113.0209404576-.0167523661.0544451899-.0317016846.0783869229-.0095858226.0017916359.0023964556.0095629992.0023964556.0095629992-.0855648781.1920588022-.1812861635.3865026484-.288396319.5743733591-.097524333.184880847-.2046116651.372740146-.3218782279.5624024925-.4505336608.7448868839-1.0135181497,1.4466946247-1.6788427063,2.1024333586-4.3484486453,4.2730629978-9.3173510682,5.102316532-14.6613672693,2.4482533195-.2925729989-.2016332131-.5833429502-.3936920153-.8645499023-.5881358615l-.071790964-.0430791431.0783755112.0718023757c-.372740146-.1118916551-.6880452384-.2776122687-.9513015966-.5265127164-.0951278773-.098117741-.1926522103-.2058098929-.275215813-.3374437779-.0352963681-.0622165532-.0706041479-.124444518-.1082969717-.195642074-.4044532423-.3667604186-.7753903407-.7215499706-1.126596621-1.0805276142-.1687218889-.1914539825-.3344539142-.3733449657-.5007793474-.5552245373-.1567510224-.1842760272-.3129086368-.3685520544-.4505222491-.5570161732-.116068335-.1435933398-.222562259-.2895831352-.3314640504-.4451359298-.1561462027-.2243653066-.3003443622-.4421460661-.4373531548-.6712928723-.018544002-.0359011879-.0472672346-.0694059201-.0538517818-.0981291527-.0143559105-.0167523661-.0191374101-.0359011879-.0335047322-.052653554-.1035040604-.1764932522-.1980385296-.3553829601-.2895717235-.5253030769-.3111170009-.610867955-.5522346736-1.2289138652-.7239464262-1.8541377307l-.0574350536-.238127809c-.0759904673-.3147002726-.1334255208-.6341934566-.1687218889-.9489051409l-.0065845472-.0281184129c-.0089695911-.1196630184-.0197422298-.248295628-.0305148685-.3769282375-.0095744109-.2094045764-.0293166407-.4164126971-.0299100488-.6282137292-.0113660468-.0478606427-.0035946835-.1005141967.0059797274-.1429999317-.0113660468-.0478606427-.0107726387-.0879499221-.0011982278-.1310290652.0018030476-.1621373418.0149607302-.3164919085.0311196883-.4618882959.010761227-.1639289776.0269201851-.3093139533.0496522786-.4660763874.0233369133-.1573444305.0484654624-.3045324537.0813767866-.4642733398.1052956963-.5300959881.2614533106-1.0625884319.4702644789-1.5872981007.4032550145-1.0673699315,1.0081318304-2.1425112263,1.8188299509-3.2068912941,3.4079310992-3.9547794534,8.2721084104-5.3841168922,12.5607369582-4.4836772137.3206914118.0634261927.6359965042.148386251.9542914603.2429093086.6359965042.1896623466,1.2522507785.4241954721,1.8439699117.7251446541.150771295.0741874197.2913633594.1513761148.4415412463.2261569425.14298852.0867516943.2961562706.1705135248.4295817915.2596616747,1.8379901843,1.1200234855,3.4025333681,2.790478597,4.4322104759,4.9844565612,1.1589259488,2.4757669127,1.3820930275,4.9958111962.7083922879,7.2992729482l-.0095629992.0023964556Z"/>
      <path d="M190.5068266918,22.002856822c-3.6466523162-1.0658179412-7.3543343695-1.2485990366-11.1206382925-.7911955362l-.0293166407.0474441159c-.8088950729-.3997858597-1.621396241-.2234067244-2.4243115865.0315932736-15.2895924101.6520242277-30.500215901,2.0925565379-45.5127894506,5.1913962117-10.7963521972,2.2297536234-21.5974858941,4.440175838-32.3178476241,7.0254379501-17.9376758952,4.341869804-35.2028606903,10.6611293347-52.403603652,17.2071449218-6.8483969366,2.6068016837-13.5907164759,5.3996710305-19.6129210651,9.6541957321-1.3564680697.9542914603-2.7798856925,1.8846468933-2.7476990108,3.8249372043-.1864898958-.0556377118-.3094993933.0245294353-.3571860077.248295628-3.7602043728.5665905841-6.6363591119-1.3521601554-9.1060863858-3.6514338158-1.773245941-1.6507128817.1383867546-3.0016748093,1.3533583832-3.951778178,5.5896300811-4.4023004271,11.5827548222-8.1039913413,18.3362036156-10.5564327523,10.1675307954-3.6927156172,20.176276434-7.831765392,30.479027239-11.1337902693,18.1404959244-5.8142920917,36.6519403589-10.2244323523,55.202275845-14.4723725068,14.1629957892-3.2465012824,28.3696641295-6.3117791656,42.8964190618-7.2133600134,6.9767899005-.4368795695,13.9374322547-1.4453166627,20.9572898867-1.1153532499,2.8401422873.1303101285,5.6078887907.5911228722,8.2589621395,1.6656108476,2.766536864,1.1274410863,3.2846733973,2.6375533448,1.6327622878,5.1473099867-.8489843523,1.2857498049-1.7105443909,2.6451506798-3.4815022874,2.8518620965l-.0023964556-.0095116466Z"/>
      <path d="M23.9828470533,64.4492899844c.0567788812-.2237661927.1692011801-.3009491819.3540763212-.2453057643l.0175283613.1555585004-.1513104975.1669245472-.2298058315-.0747865336.0095116466-.0023907498Z"/>
      <path d="M141.6758477001,293.2211992331c-2.1951647803.6018755405-3.9918674574-.053246962-5.6820647987-1.108052619-1.6184063773-1.0117379255-2.9962884899-2.414759999-5.0873558018-2.6456870294-.8454010805-.0879613338-1.4664368545-.8866885878-1.2689917329-1.9642263382.6066684518-3.3373269512,4.9742773305-7.8269838924,8.4318607083-8.5927998222,2.6450822097-.589938909,4.9054648185.2961562706,6.4999408744,2.3028569322,1.550198685,1.9468577406,2.8784285191,4.0283506416,1.4395166694,6.8296018773-1.0966865722,2.1538886848-1.5639611874,4.6793192877-4.3329059187,5.1783069993Z"/>
      <path d="M163.3026502348,227.1495705873c-5.03350402,1.1068658028-8.4940772614,7.3255997252-7.1921742043,12.9568140175,1.2163381789,5.3188990636,7.0713243698,8.9493924218,12.4895394023,7.7492017892,4.6122984116-.6623118694,8.133307982-6.2091709231,6.7368704557-11.9385029565-1.4245559392-5.8843028316-6.8080680116-9.9216230643-12.0342356536-8.7675128502ZM166.7710062513,241.6045345556c-2.5296186945.3099187731-3.6203255392-1.5466040016-4.3311028711-3.4743357438-.6946297855-1.8607222778,1.0362616549-4.1276780222,3.9607591808-4.8252976714,1.745840759-.3117218206,2.7073101745,1.2630234172,3.279880486,3.0830515959.7077988799,2.2514130177-.8041135733,4.9593166003-2.9095367957,5.2165818194Z"/>
      <path d="M186.4545343172,276.7589411951c.8382117136,4.4310008364-2.3848385386,9.3610122077-6.6991890436,10.2034234245-3.216465705.627026913-8.8560561804-3.4192857342-9.4741020906-6.8134657427-.8669463579-4.7570785675,2.0078988894-8.3504839217,7.5744887612-9.4860615454,3.5287923454-.7227481984,7.8928065407,2.3806390353,8.598802373,6.0961038636Z"/>
      <path d="M232.8378419857,204.6648141091c4.4172611573-1.0895200287,7.8562891214.5917191332,8.7812753526,4.2850224526,1.0422299707,4.1797381681-1.1116587141,8.0633200655-5.0634368921,9.140857816-3.7986104274,1.0404497465-8.1392762977-1.3814767961-9.011608975-5.0269194728-.9716372344-4.0553050618,1.1259918012-7.3698770961,5.2937705145-8.3989607958Z"/>
      <path d="M257.9910404103,109.944128841c.045464187-.061029737.0795623273-.1292374293.1298194257-.1711183446.0191488218-.0047814996.135205745.0574350536.1298422491.0783755112-.0125756863.0730006036-.0580398733.1340189289-.0921380136.2022266212l-.174713028-.097524333.0071893669-.0119594548Z"/>
      <path d="M263.2040389579,98.517759867c.0616231451.0454755987.1322158813.0879613338.1914425708.1238511099-.097524333.0137625024-.1950486659.0275250048-.2925729989.0406826875l.1011304281-.1645337974Z"/>
      <path d="M214.5980300925,161.1760710943c.4858186172,2.3860367664-2.2310773799,6.2947243896-4.7152204756,6.7949217407-2.95740885.6048654042-6.6034449348-2.0156930761-7.2741558107-5.205238596-.6814606912-3.2780888501,1.0703712069-6.0039430266,4.3239363276-6.7308793165,3.7746686943-.8430046249,6.8846518869,1.2414781398,7.6654399587,5.1411961719Z"/>
      <path d="M144.8217206689,177.8238033872c.7508666113,3.311604994-1.647723018,6.729110504-5.2560776907,7.5015223927-3.6759575452.7891414314-6.9576410788-1.3749036606-7.8592903968-5.1848801347-.6898368743-2.9322803009,1.8607222778-6.4371309132,5.3021466975-7.2699791309,3.8740074866-.9381325022,6.927137622.9985688312,7.81322139,4.9533368729Z"/>
      <path d="M177.9771865985,93.6356205501l.0065845472.0281298246-.0777821031-.071197556.071197556.0430677314Z"/>
      <path d="M174.5638805917,90.4137685257c-.9142021809-1.1720722197-1.5262683637-2.3967865817-1.869691869-3.6460474965.3338490944,1.2516459587.9530932324,2.4644122776,1.869691869,3.6460474965Z"/>
      <path d="M172.5673477491,82.8811606798c-.256671811,1.2941202821-.2207706232,2.5774793371.1154749269,3.8386997068-.0143559105-.0568416455-.0376928238-.1118802434-.0514553262-.169315297-.2907699513-1.2013888604-.3129086368-2.42790627-.0640196007-3.6693844098Z"/>
      <path d="M176.6393937652,92.5969738512c-.8113029403-.7018077408-1.5071195419-1.4323273025-2.0755131736-2.1832053255.5761649949.7395005645,1.2713881886,1.4694381299,2.0755131736,2.1832053255Z"/>
      <path d="M176.650759812,92.6041518064c.037088004.071197556.0723957838.1328207011.1076921519.1944552579-.044870779-.0592381011-.0801671471-.1208612462-.1172665628-.1920588022l.0095744109-.0023964556Z"/>
      <path d="M177.9059890425,93.5925528187l.071197556.0430677314.0065845472.0281298246-.0777821031-.071197556Z"/>
      <path d="M177.9789896461,93.6356205501c.2811955404.1944552579.5719769034.3865026484.8651433104.5881358615l-.0095744109.0023964556c-.2835919961-.2040296687-.5743733591-.3960770593-.8555688995-.5905323171Z"/>
      <path d="M196.2259794945,87.3403027524c-.2309498538.8130831644-.5809464945,1.5944646442-1.0434396102,2.3321735729.46009666-.7472719278.8011237096-1.5262683637,1.0434396102-2.3321735729Z"/>
      <path d="M166.4024541968,233.3049011403c1.7434443034-.3206914118,2.7049251306,1.2534375946,3.2798918977,3.0830515959.7077874682,2.2514130177-.804124985,4.9599100084-2.9095482073,5.2171752274-2.5302121025.309325365-3.6203141276-1.5466040016-4.3311028711-3.4749291519-.6946297855-1.8607222778,1.0362616549-4.1270846141,3.9607591808-4.8252976714Z"/>
    </g>
  </g>
</svg>